<?xml version='1.0' encoding='utf-8'?>
<svg xmlns="http://www.w3.org/2000/svg" width="1433.6mm" height="843.03mm" version="1.1" viewBox="0 0 1433.6 843.03"><g transform="translate(6166.8 5975)"><path d="m-5625.4-5974.9c-10.548 0.1515-21.022 0.6896-31.339 1.5553-88.293 7.5264-174.41 33.071-255.1 69.108-77.472 35.176-150.41 84.165-203.73 151.27-29.752 38.622-55.043 85.553-50.735 135.83 1.673 25.343 15.028 47.72 30.563 67.006-4.0294 40.218 13.078 80.183 42.45 107.43 57.78 54.841 136.75 82.566 214.88 91.132 164.72 18.044 337.81-42.956 451.78-163.94 36.062-40.016 69.613-85.452 81.651-138.92 10.796-44.754-2.811-93.818-36.618-125.32 4.8662-44.805-6.8934-92.398-39.484-124.84-52.997-53.64-130.48-71.369-204.32-70.31zm8.1073 41.292c57.313-0.661 118.35 8.3761 160.66 49.444 10.086 10.619 24.989 28.584 13.23 42.776-13.609 8.3122-26.281-7.9049-38.648-12.187-21.465-11.962-46.274-2.3791-68.246-2.0271 0.3018-18.751-19.945-29.679-35.582-19.415-16.573 14.318-33.808-16.775-50.939-5.0674 0.3808 14.217 21.617 24 16.979 37.153-22.909-6.9439-47.995-8.8453-68.016 6.7153-19.742-10.973-43.236-27.042-66.45-17.006 7.476 13.635 22.506 22.481 25.927 38.422-29.118 0-57.02 11.454-76.584 33.147-21.414-6.0313-44.428-5.2485-63.131 8.8424-15.763-20.705-46.172-36.442-71.312-23.973 10.847 25.672 40.651 39.839 48 67.715-22.681 9.9594-44.377-18.904-67.642-9.4774-2.3569 13.33 8.2914 24.633 8.0113 37.887-17.993 1.0137-37.281-6.6391-54.311 1.9267-9.833 6.5127-0.8915 18.928-1.344 28.001-31.45 11.125-70.376 18.475-84.695 53.093-6.8676 19.894-35.783 12.265-35.883-7.3244-1.1401-36.29 18.904-69.362 39.584-97.796 53.244-67.562 127.78-115.21 206.11-148.81 76.306-32.083 157.1-55.752 240.02-61.226 7.9695-0.4238 16.079-0.7183 24.266-0.8123zm132.8 147.7c25.684 0.6321 50.89 6.2383 69.976 24.326 20.983 21.06 21.34 54.688 9.9859 80.664-17.993 42.119-47.164 78.586-78.867 111.23-102.13 103.93-257.32 168.6-402.41 129.68 62.189-10.695 126-15.814 185.94-36.974 86.544-31.449 168.58-80.714 230.39-149.67 23.138-27.522 50.837-63.029 38.875-101.14-18.779-42.296-75.903-41.71-113.23-28.228 11.784 11.049 32.692 7.4762 41.106 23.087-39.078 14.115-85.277 1.3665-121.34 25.213 6.8166 16.65 24.483 32.312 22.582 51.801-24.709-7.9833-50.913-12.139-76.61-6.6148-22.681-7.2477-46.656-18.271-70.959-10.465 13.685 13.964 37.559 27.723 34.594 49.77-25.875 4.2327-49.038-16.116-74.888-12.24-9.6304 0.5316-10.011 16.242-20.503 13.074-21.211-3.041-42.601-15.128-64.218-8.1075-2.6098 12.924 12.192 20.323 16.297 31.372-23.366 6.3107-48.634-8.3885-72.43-1.5962-6.9186 13.102 10.72 22.202 19.868 28.462-29.904 10.973-64.268 6.0056-92.094 23.061-20.932 10.288-27.929 35.101-45.821 48.025-18.982 0-30.027-20.654-39.784-34.516 48.911-44.932 108.19-76.635 166.65-107.33 124.73-60.264 253.47-118.78 391.36-140.27 14.54-1.5775 30.124-2.9856 45.535-2.6055zm529.67 5.6723c-6.7642 0.1584-13.532 0.8023-20.232 1.9524-114.77 14.395-208.62 89.307-293.69 162.01-65.738 56.69-132.97 115.41-175.65 192.32-20.856 38.647-38.418 83.199-29.802 127.78 4.9927 26.762 24.306 47.644 45.568 63.179-3.2443 31.12 18.345 58.135 44.751 71.769 53.878 29.119 117.59 32.339 177.48 27.422 121.21-11.658 232.36-75.724 317.06-161.15 57.147-58.744 106.77-126.53 136.11-203.52 19.919-53.321 30.462-116.02 5.1708-169.34-15.788-33.072-52.689-50.71-88.422-48.404-23.726-42.176-70.988-65.104-118.34-64.014zm4.1952 37.204c12.759-0.1515 27.375 0.5459 32.697 6.359-145.95 74.177-248.03 207.45-377.02 304.9-49.671 35.783-101.85 68.93-144.2 113.68 0.5818-40.928 20.22-78.357 42.42-111.63 48.125-69.235 113.53-123.65 177.37-177.75 75.089-61.05 157.6-124.63 257-135.27 3.4273-0.086 7.4775-0.23 11.731-0.2802zm101.85 44.049c17.96-1.3168 41.206 13.466 31.914 31.138-24.506-13.912-58.871-8.7403-74.457 16.145-3.8266 9.1743-14.85 10.062-20.578 17.31-11.125 16.397-41.432 6.0035-49.035 25.771 14.775 3.497 32.134 6.2347 41.662 19.463-20.02-1.3685-34.974 10.063-47.442 24.204-19.64 1.4957-44.474 2.1536-56.055 21.034 17.688 0.6825 35.983-0.6896 52.962 5.3454-27.75 8.6672-38.113 38.319-64.393 48.278-15.256 9.9343-18.501 28.965-25.47 44.399-7.9323-3.497-14.773-17.433-24.2-10.413-12.266 10.238-6.2872 28.865-14.701 40.776-16.169 11.53-26.102-20.098-42.98-12.344-20.882 11.962-6.0552 44.274-28.027 55.602-14.648 13.178-36.268-3.4712-50.383 10.239-12.975 11.1-23.718 26.534-25.467 43.868-0.6608 11.176 11.833 17.815 21.412 13.178 110.14-35.252 213.23-94.631 296.08-175.68 15.712-13.33 28.637-29.93 45.743-41.562-48.86 74.279-108.72 143.39-182.49 193.9-67.664 43.943-145.97 70.401-225.62 81.476-20.629 3.7506-36.088-18.323-56.412-13.913-12.19 3.3705-12.947 17.006-16.267 26.965-16.447 8.1096-37.966-5.3474-38.852-23.417-1.4195-15.687 9.4278-28.536 19.464-39.179 31.222-32.337 70.884-54.36 107.38-80.007 119.69-80.208 206.59-199.6 326.97-278.72 28.51-18.069 58.639-35.252 91.99-42.272 2.2391-0.8835 4.6988-1.4008 7.2647-1.589z" stroke-width="2.5342"/></g></svg>