<?xml version='1.0' encoding='utf-8'?>
<svg xmlns="http://www.w3.org/2000/svg" enable-background="new 600.1128 -63.9298 1359.7744 1727.8596" version="1.1" viewBox="600.1128 -63.9298 1359.7744 1727.8596">
<path d="m1478.6 1600h-684.37c-31.268 0-61.273-12.34-83.494-34.339l-55.341-54.788c-10.654-10.547-3.1848-28.707 11.806-28.707h938.42c14.991 0 22.46 18.16 11.806 28.707l-55.341 54.788c-22.221 21.998-52.226 34.339-83.494 34.339zm430.94-628.32c0 118.32-95.915 214.23-214.23 214.23-42.214 0-81.571-12.217-114.74-33.297-22.222 172.35-170.52 306.64-348.66 306.64h-190.99c-193.34 0-351.53-158.19-351.53-351.53v-373.1c0-30.768 25.174-55.941 55.941-55.941 260.73 16.608 521.45 16.608 782.18 0 30.768 0 55.941 25.173 55.941 55.941v54.33c32.561-19.976 70.865-31.501 111.86-31.501 118.32 1e-4 214.23 95.915 214.23 214.23zm-68.142 0c0-80.683-65.407-146.09-146.09-146.09-44.903 0-85.066 20.265-111.86 52.14v187.9c26.799 31.875 66.962 52.14 111.86 52.14 80.683 0 146.09-65.407 146.09-146.09zm-944.61-290.59c32.782-36.958 42.045-88.807 19.737-133.46-13.425-26.87-43.412-49.769-62.538-74.61-10.329-13.416-18.475-27.904-24.705-43.633-15.143-38.231-14.806-82.139-0.4262-120.49 14.907-39.757 43.428-71.708 63.317-108.75 12.087-23.803 22.552-50.038 16.711-77.165-5.1778-24.046-21.618-45.691-45.924-52.326 28.063-2.4903 52.309 17.782 64.448 41.63 12.061 23.695 12.408 50.862 6.5517 76.391-12.015 52.38-49.167 93.845-64.015 145.03-9.4456 31.365-3.6801 74.054 13.466 102.19 21.171 34.99 53.78 63.293 66.865 102.92 17.186 52.046-3.884 116.19-53.487 142.27zm246.41 17.466c-37.472-73.841-70.733-165.04-27.715-244.1 42.511-78.134 133.64-99.108 206.18-138.09 5.5579-2.9871 13.296-7.4093 17.724-10.278 26.195-17.251 50.77-38.984 62.862-68.687 14.157-34.774 4.2865-72.591-15.937-102.79-38.709-57.806-108.15-81.734-169.37-107.62 84.33 11.939 177.59 37.152 218.88 119.76 19.103 38.216 20.638 82.062 2.0444 120.66-21.504 44.638-62.213 75.466-105.66 97.069-62.179 30.916-143.72 48.166-184.63 109.62-43.777 65.765-19.812 152.59-4.3842 224.47zm267.31-11.978c-77.728-15.928-141.03-70.683-170.97-143.71-17.861-43.556-23.242-94.167-13.979-140.4 2.1704-10.834 4.8333-21.456 7.8079-32.102 2.9481-10.552 5.9951-21.121 7.7559-31.952 0.6917-4.2544 1.1133-8.5169 1.256-12.823 0.0178-0.5356 0.0425-3.0043 0.0786-0.6495-2.1901-62.275-58.636-100.39-105.38-131.86-35.676-24.018-72.401-49.234-95.613-86.377-19.552-31.802-29.847-71.248-14.06-106.7-6.6786 50.735 26.536 94.698 66.112 122.48 35.787 25.119 76.586 42.019 112.64 66.74 35.23 27.248 65.73 56.756 79.126 100.64 8.9813 29.421 3.449 59.569-5.149 88.373-9.6432 32.306-16.411 64.298-14.298 98.332 1.8408 29.656 8.7494 63.002 22.72 88.916 27.132 53.531 68.978 93.345 121.96 121.09z"/>
</svg>