<?xml version="1.0" encoding="UTF-8"?>
<svg enable-background="new 0 0 197.958 289.599" viewBox="0 0 197.958 289.599" xmlns="http://www.w3.org/2000/svg">
 <path d="m146.33 137.13c0-1.461-1.524-2.656-3.387-2.656h-115.06c-1.862 0-3.386 1.195-3.386 2.656v128.44c0 1.461 1.523 2.656 3.386 2.656h115.06c1.862 0 3.387-1.195 3.387-2.656v-128.44z" fill="#231f20"/>
 <path d="m40.906,250.248c-.71,0-1.403-.286-1.909-.788-.501-.502-.788-1.197-.788-1.908v-42.256c0-.71.287-1.405.788-1.908s1.199-.787 1.909-.787h89.008c.718,0 1.396.279 1.904.787s.792,1.188.792,1.908v42.256c0,.721-.283,1.398-.792,1.908s-1.187.788-1.904.788h-89.008zm89.008-2.697v-2.696 2.696zm-86.312-2.696h83.614v-36.862h-83.614v36.862z" fill="#fff"/>
 <path d="m93.934 226.42a8.524 8.524 0 1 0 -17.048 0 8.524 8.524 0 1 0 17.048 0" fill="#fff"/>
 <path d="m170.82 282.42c0 3.947-3.229 7.177-7.176 7.177h-156.47c-3.946 0-7.176-3.229-7.176-7.177v-3.213c0-3.947 3.229-7.177 7.176-7.177h156.47c3.946 0 7.176 3.229 7.176 7.177v3.213z" fill="#231f20"/>
 <path d="m163.64 112.57h-30.586c-13.575 7.317-29.978 11.599-47.647 11.599s-34.074-4.282-47.649-11.599h-30.587c-3.946 0-7.176 3.229-7.176 7.176v3.213c0 3.948 3.229 7.176 7.176 7.176h156.47c3.946 0 7.176-3.229 7.176-7.176v-3.213c-1e-3 -3.946-3.23-7.176-7.176-7.176z" fill="#231f20"/>
 <path d="m0.735 54.572v1e-3c0 21.992 13.424 41.505 34.148 53.704 14.104 8.302 31.59 13.216 50.527 13.216s36.421-4.915 50.525-13.216c20.724-12.199 34.147-31.712 34.147-53.704v-1e-3h-169.35z" fill="#231f20"/>
 <path d="m80.689 23.672h9.44v73.246h-9.44z" fill="#231f20"/>
 <path d="m94.53 23.556a9.12 9.12 0 1 0 -18.24 0 9.12 9.12 0 1 0 18.24 0" fill="#231f20"/>
 <path d="m87.992 33.716v9.438h106.45s2.379-0.136 2.891-0.646c0.833-0.835 0.833-7.311 0-8.146-0.512-0.511-2.891-0.646-2.891-0.646h-106.45z" fill="#231f20"/>
 <path d="m195.09 36.464h-14.839s-4.736-32.148-1.62-35.266c1.599-1.598 16.479-1.598 18.078 0 3.116 3.118-1.619 35.266-1.619 35.266z" fill="#231f20"/>
</svg>
