<?xml version="1.0" encoding="UTF-8"?>
<svg width="97.837" height="144.92" version="1.1" viewBox="0 0 25.886 38.343" xmlns="http://www.w3.org/2000/svg">
 <g transform="translate(-461.13 -115.52)">
  <path d="m474.08 115.52c-0.0776 0-0.15514 6e-3 -0.23285 0.0173-0.0777 0.0112-0.15547 0.0276-0.23319 0.0487-0.15546 0.0423-0.31109 0.10309-0.4664 0.17736-0.15532 0.0743-0.31049 0.16209-0.46534 0.25794-0.15484 0.0958-0.30951 0.20001-0.46357 0.30704-0.30812 0.21406-0.61421 0.43981-0.91724 0.63635-0.15151 0.0983-0.30215 0.18915-0.45191 0.26747-0.14975 0.0783-0.29858 0.14422-0.44625 0.19221-0.14768 0.048-0.30664 0.0824-0.47382 0.10706-0.16718 0.0247-0.3426 0.0396-0.52292 0.0491-0.36065 0.0191-0.74111 0.0161-1.1162 0.024-0.18754 4e-3 -0.37384 0.0109-0.55544 0.0244s-0.35858 0.0338-0.52787 0.065c-0.1693 0.0312-0.33095 0.0733-0.48159 0.13038-0.0753 0.0286-0.14784 0.0609-0.2173 0.0975-0.0695 0.0366-0.13576 0.0773-0.19857 0.12296-0.0628 0.0456-0.12217 0.0961-0.17843 0.15087-0.0563 0.0548-0.10926 0.11386-0.15971 0.17666-0.10088 0.12562-0.19112 0.26626-0.27312 0.41764s-0.15577 0.31339-0.22472 0.48194c-0.0689 0.16856-0.13295 0.34367-0.19468 0.52081-0.12348 0.35428-0.23852 0.71722-0.36817 1.0543-0.0648 0.16855-0.13334 0.33056-0.20846 0.48193-0.0751 0.15139-0.15678 0.29202-0.24804 0.41764-0.0913 0.12562-0.19972 0.24677-0.32048 0.36499-0.12076 0.11823-0.25368 0.2336-0.39396 0.34733-0.28056 0.22746-0.59052 0.44868-0.88932 0.67556-0.14941 0.11344-0.29595 0.22826-0.43496 0.34591s-0.27037 0.23811-0.38901 0.36287-0.2244 0.2539-0.3127 0.38866c-0.0442 0.0674-0.084 0.13627-0.11872 0.2067-0.0347 0.0704-0.0643 0.1424-0.0883 0.21624-0.024 0.0738-0.0425 0.14947-0.0559 0.22684-0.0133 0.0774-0.0215 0.15662-0.0254 0.23708-8e-3 0.16093 2e-3 0.32754 0.0248 0.4982 0.0226 0.17065 0.0581 0.34534 0.10141 0.52222 0.0433 0.17688 0.0945 0.3557 0.14875 0.53529 0.1084 0.35917 0.22894 0.72026 0.32224 1.0692 0.0466 0.17446 0.0863 0.34606 0.11448 0.51268 0.0282 0.16662 0.0448 0.32843 0.0448 0.48371 0 0.15527-0.0167 0.31708-0.0448 0.48371-0.0282 0.16662-0.0678 0.33821-0.11448 0.51268-0.0933 0.34891-0.21384 0.71-0.32224 1.0692-0.0542 0.17959-0.10544 0.35842-0.14875 0.5353-0.0433 0.17687-0.0788 0.35156-0.10141 0.52221-0.0226 0.17066-0.0325 0.33728-0.0248 0.4982 4e-3 0.0805 0.0121 0.15971 0.0254 0.23709 0.0133 0.0774 0.0319 0.15299 0.0559 0.22683 0.024 0.0738 0.0536 0.14581 0.0883 0.21624 0.0347 0.0704 0.0746 0.13932 0.11872 0.2067 0.0883 0.13476 0.19406 0.26391 0.3127 0.38866 0.11864 0.12476 0.25 0.24522 0.38901 0.36287s0.28555 0.23247 0.43496 0.34591c0.2988 0.22688 0.60876 0.44811 0.88932 0.67556 0.14028 0.11374 0.2732 0.2291 0.39396 0.34733 0.12076 0.11822 0.22921 0.23937 0.32048 0.36499 0.0913 0.12562 0.17291 0.26625 0.24804 0.41764 0.0751 0.15138 0.14363 0.31338 0.20846 0.48194 0.12965 0.33711 0.24469 0.70005 0.36817 1.0543 0.12347 0.35429 0.2554 0.69999 0.4194 1.0028 0.082 0.15138 0.17223 0.29201 0.27312 0.41763 0.0505 0.0628 0.10344 0.12191 0.15971 0.17666 0.0563 0.0548 0.11562 0.10524 0.17843 0.15087 0.0492 0.0357 0.10219 0.066 0.15546 0.0961 0.10135 0.0553 0.20915 0.10164 0.32224 0.14098 1.054 0.36665 2.6012 0.054 3.616 0.38372 0.0962 0.0312 0.19364 0.0802 0.29079 0.12507 0.12329 0.057 0.24711 0.12131 0.3717 0.19504 0.12448 0.0737 0.24999 0.15187 0.37559 0.23638 0.42295 0.2846 0.85081 0.60629 1.2819 0.86883 1e-3 6.5e-4 2e-3 1e-3 3e-3 2e-3 0.12447 0.0757 0.24905 0.14559 0.37382 0.2074 0.0278 0.0138 0.0556 0.0269 0.0834 0.0399 0.13768 0.0639 0.2756 0.11853 0.41339 0.15723 0.0216 6e-3 0.0434 0.0109 0.065 0.0163 0.0494 0.0122 0.0987 0.0229 0.14805 0.0311 0.0199 3e-3 0.0398 7e-3 0.0597 0.01 0.0701 9e-3 0.14014 0.0155 0.21023 0.0155 0.0675 0 0.1349-7e-3 0.20246-0.0152 0.0626-9e-3 0.12534-0.0204 0.18797-0.035 4.8e-4 -1.1e-4 6.8e-4 -2.4e-4 1e-3 -3.5e-4 0.75476-0.17615 1.5096-0.80094 2.2475-1.2974 0.12537-0.0844 0.25061-0.16248 0.37488-0.23602 0.12435-0.0736 0.24794-0.13776 0.371-0.19468 0.0974-0.0451 0.19502-0.0941 0.29149-0.12544 1.0138-0.3294 2.5591-0.0177 3.6132-0.38265 1e-4 -4e-5 2.5e-4 3e-5 3.6e-4 0 0.11422-0.0396 0.22315-0.0862 0.32541-0.14204 0.0532-0.0301 0.10604-0.0605 0.15511-0.0961 0.0628-0.0456 0.12217-0.0961 0.17843-0.15087 0.0563-0.0548 0.10926-0.11386 0.15971-0.17667 0.10089-0.12561 0.19112-0.26625 0.27312-0.41763s0.15577-0.31339 0.22472-0.48194c0.0689-0.16856 0.13295-0.34367 0.19469-0.52081 0.12346-0.35428 0.23851-0.71722 0.36817-1.0543 0.0648-0.16855 0.13333-0.33056 0.20846-0.48194 0.0751-0.15138 0.15677-0.29201 0.24804-0.41763 0.0913-0.12562 0.19972-0.24677 0.32047-0.365 0.12075-0.11822 0.2537-0.23359 0.39396-0.34732 0.28053-0.22746 0.59021-0.44868 0.88897-0.67556 0.14939-0.11344 0.29597-0.22826 0.43496-0.34591 0.13898-0.11765 0.27039-0.23811 0.38901-0.36287s0.22441-0.2539 0.3127-0.38866c0.0442-0.0673 0.084-0.13627 0.11872-0.2067 0.0347-0.0704 0.0643-0.1424 0.0883-0.21624 0.024-0.0738 0.0425-0.14947 0.0558-0.22684 0.0133-0.0774 0.0215-0.15662 0.0254-0.23708 8e-3 -0.16093-2e-3 -0.32754-0.0247-0.4982-0.0226-0.17065-0.0581-0.34534-0.10141-0.52222-0.0433-0.17688-0.0946-0.3557-0.14875-0.53529-0.10835-0.35917-0.22863-0.72026-0.32188-1.0692-0.0466-0.17446-0.0863-0.34606-0.11448-0.51268-0.0282-0.16662-0.0448-0.32843-0.0448-0.4837 0-0.15528 0.0167-0.31709 0.0448-0.48372 0.0282-0.16662 0.0678-0.33821 0.11448-0.51268 0.0933-0.34891 0.21353-0.71 0.32188-1.0692 0.0541-0.17959 0.10546-0.35842 0.14875-0.5353 0.0433-0.17687 0.0788-0.35156 0.10141-0.52221 0.0226-0.17066 0.0325-0.33728 0.0247-0.4982-4e-3 -0.0805-0.0121-0.15971-0.0254-0.23709-0.0133-0.0774-0.0319-0.153-0.0558-0.22683-0.024-0.0739-0.0537-0.14582-0.0883-0.21624-0.0347-0.0704-0.0746-0.13932-0.11872-0.2067-0.0883-0.13476-0.19408-0.26391-0.3127-0.38866-0.11862-0.12476-0.25003-0.24522-0.38901-0.36287-0.13899-0.11765-0.28557-0.23247-0.43496-0.34591-0.29876-0.22689-0.60844-0.44811-0.88897-0.67557-0.14026-0.11373-0.27321-0.22909-0.39396-0.34732-0.12075-0.11822-0.22921-0.23937-0.32047-0.36499-0.0913-0.12562-0.17291-0.26625-0.24804-0.41764-0.0751-0.15138-0.14364-0.31338-0.20846-0.48194-0.12966-0.33711-0.24471-0.70005-0.36817-1.0543-0.0617-0.17714-0.12574-0.35225-0.19469-0.5208-0.069-0.16856-0.14272-0.33056-0.22472-0.48194-0.082-0.15139-0.17223-0.29202-0.27312-0.41764-0.0505-0.0628-0.10344-0.12191-0.15971-0.17666-0.0563-0.0548-0.11562-0.10524-0.17843-0.15088-0.0628-0.0456-0.12911-0.0864-0.19857-0.12295-0.0695-0.0366-0.14197-0.069-0.21729-0.0975-0.15066-0.0572-0.31229-0.0992-0.48159-0.13038-0.16932-0.0312-0.34627-0.0516-0.52788-0.065-0.18161-0.0135-0.36788-0.0204-0.55543-0.0244-0.37511-8e-3 -0.75584-5e-3 -1.1165-0.024-0.18034-0.01-0.35574-0.0245-0.52292-0.0491-0.16719-0.0247-0.32614-0.0591-0.47382-0.10706-0.14768-0.048-0.2965-0.11389-0.44625-0.19221-0.14976-0.0783-0.3004-0.1692-0.45191-0.26747-0.30303-0.19653-0.60913-0.42228-0.91725-0.63634-0.15406-0.10703-0.30872-0.2112-0.46356-0.30705-0.15485-0.0958-0.31003-0.18365-0.46534-0.25793-0.15531-0.0743-0.31094-0.13504-0.4664-0.17737-0.0776-0.0211-0.15525-0.0375-0.23284-0.0488-1.1e-4 -1e-5 -2.4e-4 2e-5 -3.5e-4 0-0.0777-0.0112-0.15521-0.0173-0.23285-0.0173zm0 4.3813a8.8389 8.8389 0 0 1 0.67132 0.0265 8.8389 8.8389 0 0 1 0.0569 5e-3 8.8389 8.8389 0 0 1 0.62398 0.0738 8.8389 8.8389 0 0 1 0.0615 0.01 8.8389 8.8389 0 0 1 0.61409 0.12225 8.8389 8.8389 0 0 1 0.0572 0.0131 8.8389 8.8389 0 0 1 0.64624 0.18232 8.8389 8.8389 0 0 1 0.62751 0.23143 8.8389 8.8389 0 0 1 0.0587 0.0251 8.8389 8.8389 0 0 1 0.56568 0.26076 8.8389 8.8389 0 0 1 0.0579 0.0297 8.8389 8.8389 0 0 1 0.54307 0.30387 8.8389 8.8389 0 0 1 0.0548 0.0329 8.8389 8.8389 0 0 1 0.55649 0.37206 8.8389 8.8389 0 0 1 0.52788 0.41587 8.8389 8.8389 0 0 1 0.042 0.0367 8.8389 8.8389 0 0 1 0.46145 0.42647 8.8389 8.8389 0 0 1 0.0449 0.0449 8.8389 8.8389 0 0 1 0.42646 0.46144 8.8389 8.8389 0 0 1 0.0367 0.042 8.8389 8.8389 0 0 1 0.41587 0.52787 8.8389 8.8389 0 0 1 0.37276 0.55756 8.8389 8.8389 0 0 1 0.0304 0.0505 8.8389 8.8389 0 0 1 0.30563 0.54625 8.8389 8.8389 0 0 1 0.0297 0.058 8.8389 8.8389 0 0 1 0.26076 0.56568 8.8389 8.8389 0 0 1 0.0251 0.0587 8.8389 8.8389 0 0 1 0.23143 0.62752 8.8389 8.8389 0 0 1 0.18232 0.64624 8.8389 8.8389 0 0 1 0.0131 0.0572 8.8389 8.8389 0 0 1 0.12225 0.61409 8.8389 8.8389 0 0 1 0.01 0.0615 8.8389 8.8389 0 0 1 0.0738 0.62397 8.8389 8.8389 0 0 1 5e-3 0.0569 8.8389 8.8389 0 0 1 0.0265 0.67133 8.8389 8.8389 0 0 1-0.0435 0.83174 8.8389 8.8389 0 0 1-0.029 0.24415 8.8389 8.8389 0 0 1-0.0972 0.61232 8.8389 8.8389 0 0 1-0.047 0.23673 8.8389 8.8389 0 0 1-0.21589 0.80629 8.8389 8.8389 0 0 1-0.29892 0.7784 8.8389 8.8389 0 0 1-0.10246 0.22224 8.8389 8.8389 0 0 1-0.28196 0.55296 8.8389 8.8389 0 0 1-0.11695 0.20917 8.8389 8.8389 0 0 1-0.45544 0.70136 8.8389 8.8389 0 0 1-0.52293 0.64588 8.8389 8.8389 0 0 1-0.17031 0.18444 8.8389 8.8389 0 0 1-0.43176 0.43177 8.8389 8.8389 0 0 1-0.18444 0.17031 8.8389 8.8389 0 0 1-0.64589 0.52292 8.8389 8.8389 0 0 1-0.70136 0.45545 8.8389 8.8389 0 0 1-0.20917 0.11695 8.8389 8.8389 0 0 1-0.55296 0.28196 8.8389 8.8389 0 0 1-0.22224 0.10246 8.8389 8.8389 0 0 1-0.77839 0.29892 8.8389 8.8389 0 0 1-0.8063 0.21588 8.8389 8.8389 0 0 1-0.23673 0.047 8.8389 8.8389 0 0 1-0.61232 0.0972 8.8389 8.8389 0 0 1-0.24415 0.029 8.8389 8.8389 0 0 1-0.83174 0.0435 8.8389 8.8389 0 0 1-1.926-0.21694 8.8389 8.8389 0 0 1-0.11836-0.0318 8.8389 8.8389 0 0 1-1.7197-0.60172 8.8389 8.8389 0 0 1-0.16642-0.0845 8.8389 8.8389 0 0 1-1.4971-0.94092 8.8389 8.8389 0 0 1-0.16253-0.13179 8.8389 8.8389 0 0 1-1.2412-1.2412 8.8389 8.8389 0 0 1-0.1318-0.16253 8.8389 8.8389 0 0 1-0.94162-1.4985 8.8389 8.8389 0 0 1-0.0837-0.1643 8.8389 8.8389 0 0 1-0.60172-1.7204 8.8389 8.8389 0 0 1-0.0318-0.11836 8.8389 8.8389 0 0 1-0.21695-1.926 8.8389 8.8389 0 0 1 0.21695-1.926 8.8389 8.8389 0 0 1 0.0318-0.11836 8.8389 8.8389 0 0 1 0.60172-1.7197 8.8389 8.8389 0 0 1 0.0845-0.16641 8.8389 8.8389 0 0 1 0.94091-1.4971 8.8389 8.8389 0 0 1 0.1318-0.16253 8.8389 8.8389 0 0 1 1.2412-1.2412 8.8389 8.8389 0 0 1 0.16253-0.13179 8.8389 8.8389 0 0 1 1.4985-0.94163 8.8389 8.8389 0 0 1 0.1643-0.0837 8.8389 8.8389 0 0 1 1.7204-0.60173 8.8389 8.8389 0 0 1 0.11836-0.0318 8.8389 8.8389 0 0 1 1.926-0.21694zm4.3103 4.6569a1.4081 1.4081 0 0 0-0.47983 0.0834 1.4081 1.4081 0 0 0-0.11342 0.0438 1.4081 1.4081 0 0 0-0.41163 0.26076l-4.2548 4.0817-2.3631-2.2588a1.4081 1.4081 0 0 0-0.63953-0.34803 1.4081 1.4081 0 0 0-0.7275 0.0176 1.4081 1.4081 0 0 0-0.62186 0.37876 1.4081 1.4081 0 0 0-0.34804 0.63954 1.4081 1.4081 0 0 0 0.0177 0.72785 1.4081 1.4081 0 0 0 0.37912 0.62151l4.3032 4.1163 6.2024-5.9388a1.4081 1.4081 0 0 0 0.17349-0.20141 1.4081 1.4081 0 0 0 0.0134-0.0201 1.4081 1.4081 0 0 0 0.12225-0.21623 1.4081 1.4081 0 0 0 0.0106-0.0233 1.4081 1.4081 0 0 0 0.0784-0.23849 1.4081 1.4081 0 0 0 5e-3 -0.0191 1.4081 1.4081 0 0 0 0.0325-0.26571 1.4081 1.4081 0 0 0-0.0194-0.26641 1.4081 1.4081 0 0 0-4e-3 -0.0212 1.4081 1.4081 0 0 0-0.0664-0.24027 1.4081 1.4081 0 0 0-0.01-0.0244 1.4081 1.4081 0 0 0-0.1113-0.22189 1.4081 1.4081 0 0 0-0.0124-0.0205 1.4081 1.4081 0 0 0-0.16359-0.20988 1.4081 1.4081 0 0 0-0.40173-0.28231 1.4081 1.4081 0 0 0-0.10954-0.0481 1.4081 1.4081 0 0 0-0.47982-0.10636zm-12.521 16.705-4.6908 8.1248c-0.14081 0.2439 0.0839 0.53621 0.35581 0.46287 1.7438-0.47004 3.2627-0.87893 5.1653-1.3918 0.45895 1.7231 0.91763 3.4461 1.3766 5.1692 0.0725 0.27217 0.43829 0.32056 0.57911 0.0767l4.7067-8.1524-1.2992-2.2507a1.2454 1.2454 0 0 1-0.0548-0.13214c-0.30239-0.17783-0.58049-0.36425-0.82114-0.53141-0.67398-0.46815-1.2403-0.82793-1.3423-0.86106-0.10203-0.0332-0.77203-0.0751-1.5924-0.0926-0.66449-0.0142-1.5039-4e-3 -2.3829-0.42153zm16.419 1e-3c-0.87796 0.41581-1.7162 0.406-2.38 0.42011-0.8205 0.0174-1.4905 0.0594-1.5925 0.0926-0.10197 0.0332-0.66866 0.3929-1.3426 0.86106-0.67398 0.46815-1.534 1.1314-2.8931 1.1314-0.11207 0-0.21572-0.0109-0.32118-0.0194l5.7469 9.9544c0.0522 0.0903 0.1351 0.14041 0.2226 0.15405 0.1474 0.0206 0.30642-0.0619 0.35156-0.23143 0.45895-1.7231 0.91799-3.4461 1.3769-5.1692 1e-3 4.8e-4 3e-3 6.8e-4 5e-3 1e-3 2e-5 -1.2e-4 -4e-5 -5.8e-4 0-6.8e-4 1.9026 0.51284 3.4208 0.92209 5.1646 1.3921 0.0154 4e-3 0.0308 7e-3 0.046 9e-3h3.5e-4c0.24801 0.027 0.43686-0.24424 0.30493-0.47275z" stroke-linecap="square" stroke-linejoin="round" stroke-width=".89794" style="paint-order:stroke fill markers"/>
 </g>
</svg>
